<?plantuml 1.2026.0?><svg xmlns="http://www.w3.org/2000/svg" xmlns:xlink="http://www.w3.org/1999/xlink" contentStyleType="text/css" data-diagram-type="DESCRIPTION" height="721px" preserveAspectRatio="none" style="width:737px;height:721px;background:#FFFFFF;" version="1.1" viewBox="0 0 737 721" width="737px" zoomAndPan="magnify"><title>Use Case - User Authentication (App Unlock)</title><defs/><g><g class="title" data-source-line="8"><text fill="#000000" font-family="sans-serif" font-size="14" font-weight="bold" lengthAdjust="spacing" textLength="299.4893" x="211.7904" y="24.5332">Use Case - User Authentication (App Unlock)</text></g><!--cluster System--><g class="cluster" data-qualified-name="System" data-source-line="24" id="ent0003"><rect fill="none" height="420" rx="2.5" ry="2.5" style="stroke:#181818;stroke-width:1;" width="510" x="119.5" y="169.1094"/><text fill="#000000" font-family="sans-serif" font-size="14" font-weight="bold" lengthAdjust="spacing" textLength="220.1104" x="264.4448" y="185.6426">QuantumZero Mobile Application</text></g><!--entity UC1--><g class="entity" data-qualified-name="System.UC1" data-source-line="26" id="ent0004"><ellipse cx="534.5207" cy="240.5402" fill="#E0F2FE" rx="79.0207" ry="25.9308" style="stroke:#075985;stroke-width:0.5;"/><text fill="#000000" font-family="sans-serif" font-size="14" font-style="italic" lengthAdjust="spacing" textLength="67.7168" x="500.6623" y="234.1187">&#171;usecase&#187;</text><text fill="#000000" font-family="sans-serif" font-size="14" lengthAdjust="spacing" textLength="116.7578" x="476.1418" y="251.7281">Launch application</text></g><!--entity UC2--><g class="entity" data-qualified-name="System.UC2" data-source-line="27" id="ent0005"><ellipse cx="546.3133" cy="387.7366" fill="#E0F2FE" rx="64.8133" ry="33.6272" style="stroke:#075985;stroke-width:0.5;"/><text fill="#000000" font-family="sans-serif" font-size="14" font-style="italic" lengthAdjust="spacing" textLength="67.7168" x="512.4549" y="376.222">&#171;usecase&#187;</text><text fill="#000000" font-family="sans-serif" font-size="14" lengthAdjust="spacing" textLength="106.6201" x="493.0032" y="393.8314">Authenticate with</text><text fill="#000000" font-family="sans-serif" font-size="14" lengthAdjust="spacing" textLength="56.793" x="517.9168" y="411.4408">biometric</text></g><!--entity UC3--><g class="entity" data-qualified-name="System.UC3" data-source-line="28" id="ent0006"><ellipse cx="546.6401" cy="537.8895" fill="#E0F2FE" rx="67.1401" ry="34.7802" style="stroke:#075985;stroke-width:0.5;"/><text fill="#000000" font-family="sans-serif" font-size="14" font-style="italic" lengthAdjust="spacing" textLength="67.7168" x="512.7817" y="525.0074">&#171;usecase&#187;</text><text fill="#000000" font-family="sans-serif" font-size="14" lengthAdjust="spacing" textLength="106.6201" x="493.3301" y="542.6168">Authenticate with</text><text fill="#000000" font-family="sans-serif" font-size="14" lengthAdjust="spacing" textLength="74.6963" x="509.292" y="560.2262">PIN fallback</text></g><!--entity UC4--><g class="entity" data-qualified-name="System.UC4" data-source-line="29" id="ent0007"><ellipse cx="365.7329" cy="240.6465" fill="#E0F2FE" rx="55.2329" ry="35.5371" style="stroke:#075985;stroke-width:0.5;"/><text fill="#000000" font-family="sans-serif" font-size="14" font-style="italic" lengthAdjust="spacing" textLength="67.7168" x="331.8745" y="229.9804">&#171;usecase&#187;</text><text fill="#000000" font-family="sans-serif" font-size="14" lengthAdjust="spacing" textLength="84.8066" x="323.3296" y="247.5898">Access wallet</text><text fill="#000000" font-family="sans-serif" font-size="14" lengthAdjust="spacing" textLength="52.9238" x="339.271" y="265.1991">contents</text></g><!--entity UC5--><g class="entity" data-qualified-name="System.UC5" data-source-line="30" id="ent0008"><ellipse cx="205.3326" cy="240.3779" fill="#E0F2FE" rx="69.3326" ry="26.2686" style="stroke:#075985;stroke-width:0.5;"/><text fill="#000000" font-family="sans-serif" font-size="14" font-style="italic" lengthAdjust="spacing" textLength="67.7168" x="171.4742" y="234.4783">&#171;usecase&#187;</text><text fill="#000000" font-family="sans-serif" font-size="14" lengthAdjust="spacing" textLength="100.3994" x="155.1328" y="252.0877">Lock application</text></g><!--entity UC6--><g class="entity" data-qualified-name="System.UC6" data-source-line="33" id="ent0009"><ellipse cx="352.5097" cy="387.6811" fill="#E8F5E9" rx="74.0097" ry="32.5717" style="stroke:#075985;stroke-width:0.5;"/><text fill="#000000" font-family="sans-serif" font-size="14" font-style="italic" lengthAdjust="spacing" textLength="80.9512" x="312.0341" y="377.493">&#171;supporting&#187;</text><text fill="#000000" font-family="sans-serif" font-size="14" lengthAdjust="spacing" textLength="126.8545" x="289.0824" y="395.1024">Verify authentication</text><text fill="#000000" font-family="sans-serif" font-size="14" lengthAdjust="spacing" textLength="37.3516" x="333.8339" y="412.7118">status</text></g><!--entity User--><g class="entity" data-qualified-name="User" data-source-line="21" id="ent0002"><ellipse cx="534.2793" cy="52.6094" fill="#FFF7E6" rx="8" ry="8" style="stroke:#B45309;stroke-width:0.5;"/><path d="M534.2793,60.6094 L534.2793,87.6094 M521.2793,68.6094 L547.2793,68.6094 M534.2793,87.6094 L521.2793,102.6094 M534.2793,87.6094 L547.2793,102.6094" fill="none" style="stroke:#B45309;stroke-width:0.5;"/><text fill="#000000" font-family="sans-serif" font-size="14" lengthAdjust="spacing" textLength="29.5586" x="519.5" y="118.6426">User</text></g><!--entity BiometricSystem--><g class="entity" data-qualified-name="BiometricSystem" data-source-line="43" id="ent0016"><ellipse cx="446.4551" cy="646.6094" fill="#FFF7E6" rx="8" ry="8" style="stroke:#B45309;stroke-width:0.5;"/><path d="M446.4551,654.6094 L446.4551,681.6094 M433.4551,662.6094 L459.4551,662.6094 M446.4551,681.6094 L433.4551,696.6094 M446.4551,681.6094 L459.4551,696.6094" fill="none" style="stroke:#B45309;stroke-width:0.5;"/><text fill="#000000" font-family="sans-serif" font-size="14" lengthAdjust="spacing" textLength="108.9102" x="392" y="712.6426">Biometric System</text></g><!--entity SecureStorage--><g class="entity" data-qualified-name="SecureStorage" data-source-line="44" id="ent0017"><ellipse cx="54.6411" cy="507.6094" fill="#FFF7E6" rx="8" ry="8" style="stroke:#B45309;stroke-width:0.5;"/><path d="M54.6411,515.6094 L54.6411,542.6094 M41.6411,523.6094 L67.6411,523.6094 M54.6411,542.6094 L41.6411,557.6094 M54.6411,542.6094 L67.6411,557.6094" fill="none" style="stroke:#B45309;stroke-width:0.5;"/><text fill="#000000" font-family="sans-serif" font-size="14" lengthAdjust="spacing" textLength="97.2822" x="6" y="573.6426">Secure Storage</text></g><!--link UC1 to UC6--><g class="link" data-entity-1="ent0004" data-entity-2="ent0009" data-link-type="dependency" data-source-line="36" id="lnk10"><path d="M505.26,264.9094 C473.1,290.5194 426.1626,327.9204 391.9626,355.1704" fill="none" id="UC1-to-UC6" style="stroke:#181818;stroke-width:1;stroke-dasharray:7,7;"/><polygon fill="#181818" points="387.27,358.9094,396.8015,356.4293,391.1805,355.7936,391.8162,350.1726,387.27,358.9094" style="stroke:#181818;stroke-width:1;"/><text fill="#000000" font-family="sans-serif" font-size="13" lengthAdjust="spacing" textLength="55.6563" x="449.5" y="320.6045">&#171;include&#187;</text></g><!--link UC4 to UC6--><g class="link" data-entity-1="ent0007" data-entity-2="ent0009" data-link-type="dependency" data-source-line="37" id="lnk11"><path d="M355.38,275.7994 C352.96,285.5094 350.72,296.1494 349.5,306.1094 C347.55,322.0694 347.5405,333.9541 348.5805,348.7941" fill="none" id="UC4-to-UC6" style="stroke:#181818;stroke-width:1;stroke-dasharray:7,7;"/><polygon fill="#181818" points="349,354.7794,352.361,345.5218,348.6505,349.7916,344.3806,346.081,349,354.7794" style="stroke:#181818;stroke-width:1;"/><text fill="#000000" font-family="sans-serif" font-size="13" lengthAdjust="spacing" textLength="55.6563" x="350.5" y="320.6045">&#171;include&#187;</text></g><!--reverse link UC1 to UC2--><g class="link" data-entity-1="ent0004" data-entity-2="ent0005" data-link-type="dependency" data-source-line="38" id="lnk13"><path d="M537.0846,272.849 C539.0846,297.029 541.62,327.6394 543.8,354.0094" fill="none" id="UC1-backto-UC2" style="stroke:#181818;stroke-width:1;stroke-dasharray:7,7;"/><polygon fill="#181818" points="536.59,266.8694,533.3455,276.1685,537.0022,271.8524,541.3183,275.509,536.59,266.8694" style="stroke:#181818;stroke-width:1;"/><text fill="#000000" font-family="sans-serif" font-size="13" lengthAdjust="spacing" textLength="53.4917" x="541.5" y="320.6045">&#171;extend&#187;</text></g><!--reverse link UC2 to UC3--><g class="link" data-entity-1="ent0005" data-entity-2="ent0006" data-link-type="dependency" data-source-line="39" id="lnk15"><path d="M546.5,427.1994 C546.5,451.4494 546.5,478.4594 546.5,503.0494" fill="none" id="UC2-backto-UC3" style="stroke:#181818;stroke-width:1;stroke-dasharray:7,7;"/><polygon fill="#181818" points="546.5,421.1994,542.5,430.1994,546.5,426.1994,550.5,430.1994,546.5,421.1994" style="stroke:#181818;stroke-width:1;"/><text fill="#000000" font-family="sans-serif" font-size="13" lengthAdjust="spacing" textLength="53.4917" x="547.5" y="465.6045">&#171;extend&#187;</text></g><!--link User to UC1--><g class="link" data-entity-1="ent0002" data-entity-2="ent0004" data-link-type="association" data-source-line="47" id="lnk18"><path d="M534.5,122.1494 C534.5,150.9194 534.5,189.6094 534.5,214.5794" fill="none" id="User-UC1" style="stroke:#181818;stroke-width:1;"/></g><!--link User to UC2--><g class="link" data-entity-1="ent0002" data-entity-2="ent0005" data-link-type="association" data-source-line="48" id="lnk19"><path d="M549.86,90.8594 C572.63,101.8194 614.48,125.8694 631.5,161.1094 C663.47,227.2994 647.03,264.8794 603.5,324.1094 C595.06,335.5894 584.84,347.3394 575.39,357.5094" fill="none" id="User-UC2" style="stroke:#181818;stroke-width:1;"/></g><!--link User to UC3--><g class="link" data-entity-1="ent0002" data-entity-2="ent0006" data-link-type="association" data-source-line="49" id="lnk20"><path d="M549.65,87.4894 C578.76,94.9294 641.75,115.7794 665.5,161.1094 C730.07,284.3494 684.7,352.0494 609.5,469.1094 C600.8,482.6494 589.29,495.9894 578.48,507.2194" fill="none" id="User-UC3" style="stroke:#181818;stroke-width:1;"/></g><!--link User to UC4--><g class="link" data-entity-1="ent0002" data-entity-2="ent0007" data-link-type="association" data-source-line="50" id="lnk21"><path d="M519.31,95.2094 C499.9,109.6294 465.57,135.9494 438.5,161.1094 C422.28,176.1894 405.36,194.2094 391.91,209.1794" fill="none" id="User-UC4" style="stroke:#181818;stroke-width:1;"/></g><!--link User to UC5--><g class="link" data-entity-1="ent0002" data-entity-2="ent0008" data-link-type="association" data-source-line="51" id="lnk22"><path d="M519.22,86.6894 C479.72,93.8294 371.89,116.3494 293.5,161.1094 C268.25,175.5294 243.94,198.0994 227.29,215.3494" fill="none" id="User-UC5" style="stroke:#181818;stroke-width:1;"/></g><!--link UC2 to BiometricSystem--><g class="link" data-entity-1="ent0005" data-entity-2="ent0016" data-link-type="association" data-source-line="54" id="lnk23"><path d="M517.08,417.6394 C498,438.4194 474.53,468.1094 462.5,499.1094 C444.92,544.4194 442.92,600.9694 443.98,637.7794" fill="none" id="UC2-BiometricSystem" style="stroke:#181818;stroke-width:1;"/></g><!--link UC3 to BiometricSystem--><g class="link" data-entity-1="ent0006" data-entity-2="ent0016" data-link-type="association" data-source-line="55" id="lnk24"><path d="M523.05,571.2294 C508.51,591.1594 489.73,616.8794 474.42,637.8594" fill="none" id="UC3-BiometricSystem" style="stroke:#181818;stroke-width:1;"/></g><!--link UC6 to SecureStorage--><g class="link" data-entity-1="ent0009" data-entity-2="ent0017" data-link-type="association" data-source-line="56" id="lnk25"><path d="M316.1,415.9594 C291.77,433.1894 258.48,454.7894 226.5,469.1094 C181.42,489.2894 164.97,479.8194 119.5,499.1094 C114.08,501.4094 108.56,504.0694 103.14,506.8994" fill="none" id="UC6-SecureStorage" style="stroke:#181818;stroke-width:1;"/></g><!--link UC4 to SecureStorage--><g class="link" data-entity-1="ent0007" data-entity-2="ent0017" data-link-type="association" data-source-line="57" id="lnk26"><path d="M335.11,270.4794 C278.71,324.0694 157.86,438.9094 94.74,498.8694" fill="none" id="UC4-SecureStorage" style="stroke:#181818;stroke-width:1;"/></g><!--link UC5 to SecureStorage--><g class="link" data-entity-1="ent0008" data-entity-2="ent0017" data-link-type="association" data-source-line="58" id="lnk27"><path d="M192.63,266.7994 C166.17,318.5794 105.53,437.2494 74.14,498.6794" fill="none" id="UC5-SecureStorage" style="stroke:#181818;stroke-width:1;"/></g><?plantuml-src dLHjJzim4FwUNt6K3u14tvkM8a3g2qn8XNOjtOS9QNATIskHs97jZA5f_tsscsHfwOQqBv5ppzrpTy-TVHHWo3Z2OFGqdNyRJIVJEHo7OTZ3hdUqWmsdy_6j0LSTlzte5-1oSJiQB6xpK6o4hH3VeNbme-VtB_m2NYndi-dywVxnKn5_4VhOF-IGKpIxNR_TyJpDT6GIA8GHCP-gFKeOf7g3N3DAD1CSJWT90aiU2Vfovdady3abNAVnLvG2bWyJI4Y4MYDmeV4I2DL2gZh-q2WvYQup8UfPp-UWtfJ6k4v5d0Xkqbnd_TRpnauW89eeGuC6eo6bg_fn9-ZHHdZkaYX7sgUT-d7Gx_KQtHeC8hRc2W96rfB42hI0CKRiEqgoCXqsRQ7ryTqOJ6SnrZnFlJ2U4EExBNX8wCjQYfG78n49MHxbErSX0vHbjwsg9RzK8JLwxfFkZFc0UubuT-PcK2AnFQs4rY8sRKgaTZPs73F9OYBVO62BWzC8GmsA1NZckNBTIAtVmkaEGrkFyVSi1U5heqwbFD47iMB6PcOUPGjG0QBow9yUm9-K-U8eOysQWCg4f9nkWEmHB4TDkBhAl6vkYYqlHPRs3k6LwSqpNp4HevQCPXoj_-2OtJz2IA9ePSQHqRG_fA4KbO9N4uRwcLF1jM5LMNZde_29kIi75F3_4kT4NQH98gHcV7rOroyeMVW6PEToFdEbYKxpmhecWIfuN8xjMv3bA6xw72CNhpOiiLdiT6gr6qTnQKWOfr4Qc2eTrla7re9QcZYqwL1xyNcGWUq2REs2lzn6ej4rA7PNmQbawytkzbQ6-GPaA-WwBOnRM-vh25Df7ZppGzQutLjdoYmsgKjLBOGOA2KesshXkTUlMhMzbCwjqhbTEdTAP_z0FtlSHWBZkb-vrUYWkMlDkzNRGHmm-k-Dlm40?></g></svg>