<?plantuml 1.2026.0?><svg xmlns="http://www.w3.org/2000/svg" xmlns:xlink="http://www.w3.org/1999/xlink" contentStyleType="text/css" data-diagram-type="DESCRIPTION" height="788px" preserveAspectRatio="none" style="width:747px;height:788px;background:#FFFFFF;" version="1.1" viewBox="0 0 747 788" width="747px" zoomAndPan="magnify"><title>Use Case - Server Admin Management (Admin API + Web Dashboard)</title><defs/><g><g class="title" data-source-line="8"><text fill="#000000" font-family="sans-serif" font-size="14" font-weight="bold" lengthAdjust="spacing" textLength="462.4922" x="135.6675" y="24.5332">Use Case - Server Admin Management (Admin API + Web Dashboard)</text></g><!--cluster QZAdmin--><g class="cluster" data-qualified-name="QZAdmin" data-source-line="26" id="ent0003"><rect fill="none" height="644" rx="2.5" ry="2.5" style="stroke:#181818;stroke-width:1;" width="469" x="126" y="45.6094"/><text fill="#000000" font-family="sans-serif" font-size="14" font-weight="bold" lengthAdjust="spacing" textLength="186.7031" x="267.1484" y="62.1426">QuantumZero Server Admin</text></g><!--entity UC_Login--><g class="entity" data-qualified-name="QZAdmin.UC_Login" data-source-line="28" id="ent0004"><ellipse cx="223.7402" cy="107.7107" fill="#E0F2FE" rx="47.7402" ry="25.6013" style="stroke:#075985;stroke-width:0.5;"/><text fill="#000000" font-family="sans-serif" font-size="14" font-style="italic" lengthAdjust="spacing" textLength="67.7168" x="189.8818" y="107.0462">&#171;usecase&#187;</text><text fill="#000000" font-family="sans-serif" font-size="14" lengthAdjust="spacing" textLength="38.1445" x="204.6679" y="124.6556">Log in</text></g><!--entity UC_Logout--><g class="entity" data-qualified-name="QZAdmin.UC_Logout" data-source-line="29" id="ent0005"><ellipse cx="223.6027" cy="194.6464" fill="#E0F2FE" rx="48.6027" ry="26.0371" style="stroke:#075985;stroke-width:0.5;"/><text fill="#000000" font-family="sans-serif" font-size="14" font-style="italic" lengthAdjust="spacing" textLength="67.7168" x="189.7443" y="193.3236">&#171;usecase&#187;</text><text fill="#000000" font-family="sans-serif" font-size="14" lengthAdjust="spacing" textLength="46.71" x="200.2477" y="210.933">Log out</text></g><!--entity UC_Issuers--><g class="entity" data-qualified-name="QZAdmin.UC_Issuers" data-source-line="32" id="ent0006"><ellipse cx="223.4117" cy="646.42" fill="#E0F2FE" rx="68.4117" ry="26.3106" style="stroke:#075985;stroke-width:0.5;"/><text fill="#000000" font-family="sans-serif" font-size="14" font-style="italic" lengthAdjust="spacing" textLength="67.7168" x="189.5533" y="640.5845">&#171;usecase&#187;</text><text fill="#000000" font-family="sans-serif" font-size="14" lengthAdjust="spacing" textLength="98.8271" x="173.9982" y="658.1939">Manage issuers</text></g><!--entity UC_Schemas--><g class="entity" data-qualified-name="QZAdmin.UC_Schemas" data-source-line="33" id="ent0007"><ellipse cx="223.2958" cy="558.651" fill="#E0F2FE" rx="75.2958" ry="26.0416" style="stroke:#075985;stroke-width:0.5;"/><text fill="#000000" font-family="sans-serif" font-size="14" font-style="italic" lengthAdjust="spacing" textLength="67.7168" x="189.4374" y="552.4019">&#171;usecase&#187;</text><text fill="#000000" font-family="sans-serif" font-size="14" lengthAdjust="spacing" textLength="110.5029" x="168.0444" y="570.0113">Manage schemas</text></g><!--entity UC_CredDefs--><g class="entity" data-qualified-name="QZAdmin.UC_CredDefs" data-source-line="34" id="ent0008"><ellipse cx="223.737" cy="376.488" fill="#E0F2FE" rx="69.237" ry="33.3786" style="stroke:#075985;stroke-width:0.5;"/><text fill="#000000" font-family="sans-serif" font-size="14" font-style="italic" lengthAdjust="spacing" textLength="67.7168" x="189.8786" y="364.4876">&#171;usecase&#187;</text><text fill="#000000" font-family="sans-serif" font-size="14" lengthAdjust="spacing" textLength="115.1855" x="166.1442" y="382.0969">Manage credential</text><text fill="#000000" font-family="sans-serif" font-size="14" lengthAdjust="spacing" textLength="63.041" x="192.2164" y="399.7063">definitions</text></g><!--entity UC_LedgerSync--><g class="entity" data-qualified-name="QZAdmin.UC_LedgerSync" data-source-line="35" id="ent0009"><ellipse cx="223.5229" cy="281.7477" fill="#E0F2FE" rx="72.5229" ry="26.1384" style="stroke:#075985;stroke-width:0.5;"/><text fill="#000000" font-family="sans-serif" font-size="14" font-style="italic" lengthAdjust="spacing" textLength="67.7168" x="189.6645" y="275.6482">&#171;usecase&#187;</text><text fill="#000000" font-family="sans-serif" font-size="14" lengthAdjust="spacing" textLength="105.8203" x="170.6127" y="293.2575">Sync from ledger</text></g><!--entity UC_Health--><g class="entity" data-qualified-name="QZAdmin.UC_Health" data-source-line="36" id="ent0010"><ellipse cx="223.3229" cy="471.4808" fill="#E0F2FE" rx="81.3229" ry="25.8714" style="stroke:#075985;stroke-width:0.5;"/><text fill="#000000" font-family="sans-serif" font-size="14" font-style="italic" lengthAdjust="spacing" textLength="67.7168" x="189.4645" y="464.9662">&#171;usecase&#187;</text><text fill="#000000" font-family="sans-serif" font-size="14" lengthAdjust="spacing" textLength="120.6064" x="163.0197" y="482.5756">View system health</text></g><!--entity UC_Verify--><g class="entity" data-qualified-name="QZAdmin.UC_Verify" data-source-line="39" id="ent0011"><ellipse cx="500.5738" cy="329.5898" fill="#E8F5E9" rx="63.5738" ry="27.4804" style="stroke:#075985;stroke-width:0.5;"/><text fill="#000000" font-family="sans-serif" font-size="14" font-style="italic" lengthAdjust="spacing" textLength="80.9512" x="460.0982" y="325.4863">&#171;supporting&#187;</text><text fill="#000000" font-family="sans-serif" font-size="14" lengthAdjust="spacing" textLength="87.1445" x="457.0015" y="343.0956">Verify session</text></g><!--entity UC_PoolNodes--><g class="entity" data-qualified-name="QZAdmin.UC_PoolNodes" data-source-line="40" id="ent0012"><ellipse cx="500.2889" cy="239.3619" fill="#E8F5E9" rx="72.2889" ry="26.7525" style="stroke:#075985;stroke-width:0.5;"/><text fill="#000000" font-family="sans-serif" font-size="14" font-style="italic" lengthAdjust="spacing" textLength="80.9512" x="459.8133" y="234.1928">&#171;supporting&#187;</text><text fill="#000000" font-family="sans-serif" font-size="14" lengthAdjust="spacing" textLength="102.7373" x="448.9202" y="251.8021">View pool nodes</text></g><!--entity UC_Metrics--><g class="entity" data-qualified-name="QZAdmin.UC_Metrics" data-source-line="41" id="ent0013"><ellipse cx="500.6755" cy="419.5968" fill="#E8F5E9" rx="60.6755" ry="27.4874" style="stroke:#075985;stroke-width:0.5;"/><text fill="#000000" font-family="sans-serif" font-size="14" font-style="italic" lengthAdjust="spacing" textLength="80.9512" x="460.1999" y="416.2615">&#171;supporting&#187;</text><text fill="#000000" font-family="sans-serif" font-size="14" lengthAdjust="spacing" textLength="79.3447" x="461.0031" y="433.8709">View metrics</text></g><!--entity UC_Stats--><g class="entity" data-qualified-name="QZAdmin.UC_Stats" data-source-line="42" id="ent0014"><ellipse cx="500.5388" cy="508.5311" fill="#E8F5E9" rx="78.5388" ry="26.4218" style="stroke:#075985;stroke-width:0.5;"/><text fill="#000000" font-family="sans-serif" font-size="14" font-style="italic" lengthAdjust="spacing" textLength="80.9512" x="460.0632" y="502.8648">&#171;supporting&#187;</text><text fill="#000000" font-family="sans-serif" font-size="14" lengthAdjust="spacing" textLength="113.5859" x="443.7458" y="520.4742">View registry stats</text></g><!--entity Admin--><g class="entity" data-qualified-name="Admin" data-source-line="23" id="ent0002"><ellipse cx="42.5654" cy="346.1094" fill="#FFF7E6" rx="8" ry="8" style="stroke:#B45309;stroke-width:0.5;"/><path d="M42.5654,354.1094 L42.5654,381.1094 M29.5654,362.1094 L55.5654,362.1094 M42.5654,381.1094 L29.5654,396.1094 M42.5654,381.1094 L55.5654,396.1094" fill="none" style="stroke:#B45309;stroke-width:0.5;"/><text fill="#000000" font-family="sans-serif" font-size="14" lengthAdjust="spacing" textLength="73.1309" x="6" y="412.1426">Admin User</text></g><!--entity Ledger--><g class="entity" data-qualified-name="Ledger" data-source-line="57" id="ent0024"><ellipse cx="691.4136" cy="598.1094" fill="#FFF7E6" rx="8" ry="8" style="stroke:#B45309;stroke-width:0.5;"/><path d="M691.4136,606.1094 L691.4136,633.1094 M678.4136,614.1094 L704.4136,614.1094 M691.4136,633.1094 L678.4136,648.1094 M691.4136,633.1094 L704.4136,648.1094" fill="none" style="stroke:#B45309;stroke-width:0.5;"/><text fill="#000000" font-family="sans-serif" font-size="14" lengthAdjust="spacing" textLength="98.8271" x="642" y="664.1426">Ledger Browser</text></g><!--entity Postgres--><g class="entity" data-qualified-name="Postgres" data-source-line="58" id="ent0025"><ellipse cx="500.6309" cy="714.1094" fill="#FFF7E6" rx="8" ry="8" style="stroke:#B45309;stroke-width:0.5;"/><path d="M500.6309,722.1094 L500.6309,749.1094 M487.6309,730.1094 L513.6309,730.1094 M500.6309,749.1094 L487.6309,764.1094 M500.6309,749.1094 L513.6309,764.1094" fill="none" style="stroke:#B45309;stroke-width:0.5;"/><text fill="#000000" font-family="sans-serif" font-size="14" lengthAdjust="spacing" textLength="76.2617" x="462.5" y="780.1426">PostgreSQL</text></g><!--link UC_Login to UC_Verify--><g class="link" data-entity-1="ent0004" data-entity-2="ent0011" data-link-type="dependency" data-source-line="45" id="lnk15"><path d="M268.46,115.8594 C306.37,125.2094 359.94,144.1694 392,180.6094 C423.5,216.4094 392.79,245.9194 422,283.6094 C430.53,294.6194 437.3101,300.5185 449.2901,307.4685" fill="none" id="UC_Login-to-UC_Verify" style="stroke:#181818;stroke-width:1;stroke-dasharray:7,7;"/><polygon fill="#181818" points="454.48,310.4794,448.7024,302.5032,450.1551,307.9704,444.688,309.4231,454.48,310.4794" style="stroke:#181818;stroke-width:1;"/><text fill="#000000" font-family="sans-serif" font-size="13" lengthAdjust="spacing" textLength="55.6563" x="336" y="137.1045">&#171;include&#187;</text></g><!--link UC_Logout to UC_Verify--><g class="link" data-entity-1="ent0005" data-entity-2="ent0011" data-link-type="dependency" data-source-line="46" id="lnk16"><path d="M272.02,195.0494 C308.06,197.5994 357.17,206.0794 392,231.6094 C413.52,247.3794 403.25,264.6294 422,283.6094 C432.01,293.7394 439.4969,299.4742 451.6969,306.5342" fill="none" id="UC_Logout-to-UC_Verify" style="stroke:#181818;stroke-width:1;stroke-dasharray:7,7;"/><polygon fill="#181818" points="456.89,309.5394,451.1038,301.5695,452.5624,307.035,447.0968,308.4937,456.89,309.5394" style="stroke:#181818;stroke-width:1;"/><text fill="#000000" font-family="sans-serif" font-size="13" lengthAdjust="spacing" textLength="55.6563" x="336" y="203.1045">&#171;include&#187;</text></g><!--link UC_Issuers to UC_Verify--><g class="link" data-entity-1="ent0006" data-entity-2="ent0011" data-link-type="dependency" data-source-line="47" id="lnk17"><path d="M287.16,636.5394 C323.36,627.3794 366.63,610.0694 392,577.6094 C448.16,505.7494 370.83,450.0994 422,374.6094 C429.6,363.4094 435.7749,357.6039 447.4949,350.8839" fill="none" id="UC_Issuers-to-UC_Verify" style="stroke:#181818;stroke-width:1;stroke-dasharray:7,7;"/><polygon fill="#181818" points="452.7,347.8994,442.9027,348.906,448.3624,350.3864,446.882,355.8462,452.7,347.8994" style="stroke:#181818;stroke-width:1;"/><text fill="#000000" font-family="sans-serif" font-size="13" lengthAdjust="spacing" textLength="55.6563" x="336" y="574.1045">&#171;include&#187;</text></g><!--link UC_Schemas to UC_Verify--><g class="link" data-entity-1="ent0007" data-entity-2="ent0011" data-link-type="dependency" data-source-line="48" id="lnk18"><path d="M299.14,558.5194 C331.79,554.5494 368.02,544.1894 392,519.6094 C437.95,472.4994 383.53,427.9994 422,374.6094 C429.91,363.6294 436.196,357.8958 447.906,351.1758" fill="none" id="UC_Schemas-to-UC_Verify" style="stroke:#181818;stroke-width:1;stroke-dasharray:7,7;"/><polygon fill="#181818" points="453.11,348.1894,443.3131,349.1997,448.7733,350.678,447.295,356.1383,453.11,348.1894" style="stroke:#181818;stroke-width:1;"/><text fill="#000000" font-family="sans-serif" font-size="13" lengthAdjust="spacing" textLength="55.6563" x="336" y="516.1045">&#171;include&#187;</text></g><!--link UC_CredDefs to UC_Verify--><g class="link" data-entity-1="ent0008" data-entity-2="ent0011" data-link-type="dependency" data-source-line="49" id="lnk19"><path d="M292.57,373.6094 C323.16,371.4694 359.6,367.8194 392,361.6094 C411.32,357.9094 426.3893,353.9268 444.5093,348.3068" fill="none" id="UC_CredDefs-to-UC_Verify" style="stroke:#181818;stroke-width:1;stroke-dasharray:7,7;"/><polygon fill="#181818" points="450.24,346.5294,440.459,345.375,445.4644,348.0105,442.8289,353.0159,450.24,346.5294" style="stroke:#181818;stroke-width:1;"/><text fill="#000000" font-family="sans-serif" font-size="13" lengthAdjust="spacing" textLength="55.6563" x="336" y="358.1045">&#171;include&#187;</text></g><!--link UC_LedgerSync to UC_Verify--><g class="link" data-entity-1="ent0009" data-entity-2="ent0011" data-link-type="dependency" data-source-line="50" id="lnk20"><path d="M288.98,292.8594 C335.01,300.8994 390.5294,310.5872 435.1394,318.3772" fill="none" id="UC_LedgerSync-to-UC_Verify" style="stroke:#181818;stroke-width:1;stroke-dasharray:7,7;"/><polygon fill="#181818" points="441.05,319.4094,432.8722,313.9208,436.1245,318.5493,431.4961,321.8016,441.05,319.4094" style="stroke:#181818;stroke-width:1;"/><text fill="#000000" font-family="sans-serif" font-size="13" lengthAdjust="spacing" textLength="55.6563" x="336" y="298.1045">&#171;include&#187;</text></g><!--link UC_LedgerSync to UC_PoolNodes--><g class="link" data-entity-1="ent0009" data-entity-2="ent0012" data-link-type="dependency" data-source-line="51" id="lnk21"><path d="M290.37,271.5494 C333.59,264.9494 383.9789,257.256 427.2889,250.636" fill="none" id="UC_LedgerSync-to-UC_PoolNodes" style="stroke:#181818;stroke-width:1;stroke-dasharray:7,7;"/><polygon fill="#181818" points="433.22,249.7294,423.7189,247.1352,428.2774,250.4849,424.9277,255.0433,433.22,249.7294" style="stroke:#181818;stroke-width:1;"/><text fill="#000000" font-family="sans-serif" font-size="13" lengthAdjust="spacing" textLength="55.6563" x="336" y="254.1045">&#171;include&#187;</text></g><!--link UC_Health to UC_Metrics--><g class="link" data-entity-1="ent0010" data-entity-2="ent0013" data-link-type="dependency" data-source-line="52" id="lnk22"><path d="M293.89,458.4894 C340.51,449.6694 395.2142,439.3229 438.5242,431.1429" fill="none" id="UC_Health-to-UC_Metrics" style="stroke:#181818;stroke-width:1;stroke-dasharray:7,7;"/><polygon fill="#181818" points="444.42,430.0294,434.834,427.7692,439.5069,430.9573,436.3187,435.6302,444.42,430.0294" style="stroke:#181818;stroke-width:1;"/><text fill="#000000" font-family="sans-serif" font-size="13" lengthAdjust="spacing" textLength="55.6563" x="336" y="438.1045">&#171;include&#187;</text></g><!--link UC_Health to UC_Stats--><g class="link" data-entity-1="ent0010" data-entity-2="ent0014" data-link-type="dependency" data-source-line="53" id="lnk23"><path d="M298.92,481.6194 C338.84,486.9894 381.8835,492.7899 421.4535,498.1099" fill="none" id="UC_Health-to-UC_Stats" style="stroke:#181818;stroke-width:1;stroke-dasharray:7,7;"/><polygon fill="#181818" points="427.4,498.9094,419.0132,493.7458,422.4446,498.2431,417.9473,501.6745,427.4,498.9094" style="stroke:#181818;stroke-width:1;"/><text fill="#000000" font-family="sans-serif" font-size="13" lengthAdjust="spacing" textLength="55.6563" x="336" y="484.1045">&#171;include&#187;</text></g><!--link Admin to UC_Login--><g class="link" data-entity-1="ent0002" data-entity-2="ent0004" data-link-type="association" data-source-line="61" id="lnk26"><path d="M46.56,337.2394 C52.41,287.7494 69.31,202.9294 118,150.6094 C134.04,133.3794 158,122.8494 178.94,116.5294" fill="none" id="Admin-UC_Login" style="stroke:#181818;stroke-width:1;"/></g><!--link Admin to UC_Logout--><g class="link" data-entity-1="ent0002" data-entity-2="ent0005" data-link-type="association" data-source-line="62" id="lnk27"><path d="M56.15,337.4594 C67.86,306.6994 88.03,264.6794 118,237.6094 C135.18,222.0894 158.72,211.7494 179.12,205.0994" fill="none" id="Admin-UC_Logout" style="stroke:#181818;stroke-width:1;"/></g><!--link Admin to UC_Issuers--><g class="link" data-entity-1="ent0002" data-entity-2="ent0006" data-link-type="association" data-source-line="63" id="lnk28"><path d="M46.75,415.6794 C52.79,464.8294 69.9,549.1394 118,601.6094 C130.75,615.5194 148.53,625.3094 165.81,632.1194" fill="none" id="Admin-UC_Issuers" style="stroke:#181818;stroke-width:1;"/></g><!--link Admin to UC_Schemas--><g class="link" data-entity-1="ent0002" data-entity-2="ent0007" data-link-type="association" data-source-line="64" id="lnk29"><path d="M56.4,415.7294 C68.2,446.1994 88.37,487.7094 118,514.6094 C131.19,526.5794 148.11,535.5894 164.48,542.2294" fill="none" id="Admin-UC_Schemas" style="stroke:#181818;stroke-width:1;"/></g><!--link Admin to UC_CredDefs--><g class="link" data-entity-1="ent0002" data-entity-2="ent0008" data-link-type="association" data-source-line="65" id="lnk30"><path d="M79.29,376.6094 C100.72,376.6094 128.66,376.6094 154.17,376.6094" fill="none" id="Admin-UC_CredDefs" style="stroke:#181818;stroke-width:1;"/></g><!--link Admin to UC_LedgerSync--><g class="link" data-entity-1="ent0002" data-entity-2="ent0009" data-link-type="association" data-source-line="66" id="lnk31"><path d="M79.33,349.9294 C91.3,341.5994 104.93,332.7394 118,325.6094 C135.28,316.1794 155.01,307.4094 172.63,300.2094" fill="none" id="Admin-UC_LedgerSync" style="stroke:#181818;stroke-width:1;"/></g><!--link Admin to UC_Health--><g class="link" data-entity-1="ent0002" data-entity-2="ent0010" data-link-type="association" data-source-line="67" id="lnk32"><path d="M79.33,403.2894 C91.3,411.6194 104.93,420.4794 118,427.6094 C134.42,436.5694 153.04,444.9294 169.97,451.9194" fill="none" id="Admin-UC_Health" style="stroke:#181818;stroke-width:1;"/></g><!--link UC_LedgerSync to Ledger--><g class="link" data-entity-1="ent0009" data-entity-2="ent0024" data-link-type="association" data-source-line="70" id="lnk33"><path d="M275.52,299.8694 C286.94,306.2894 297.79,314.7194 305,325.6094 C342.12,381.6494 285.29,581.3594 335,626.6094 C418.98,703.0594 565.89,670.6494 641.88,646.3694" fill="none" id="UC_LedgerSync-Ledger" style="stroke:#181818;stroke-width:1;"/></g><!--link UC_PoolNodes to Ledger--><g class="link" data-entity-1="ent0012" data-entity-2="ent0024" data-link-type="association" data-source-line="71" id="lnk34"><path d="M560.07,255.1194 C575.94,261.8594 591.81,271.3594 603,284.6094 C678.44,373.9494 690.12,519.8394 691.11,589.3694" fill="none" id="UC_PoolNodes-Ledger" style="stroke:#181818;stroke-width:1;"/></g><!--link UC_Issuers to Postgres--><g class="link" data-entity-1="ent0006" data-entity-2="ent0025" data-link-type="association" data-source-line="72" id="lnk35"><path d="M242.63,672.2394 C262.14,697.3894 295.71,734.1394 335,749.6094 C376.34,765.8894 428.15,760.5494 462.46,753.8394" fill="none" id="UC_Issuers-Postgres" style="stroke:#181818;stroke-width:1;"/></g><!--link UC_Schemas to Postgres--><g class="link" data-entity-1="ent0007" data-entity-2="ent0025" data-link-type="association" data-source-line="73" id="lnk36"><path d="M274.65,578.0394 C285.94,584.4194 296.96,592.5194 305,602.6094 C335.53,640.8894 299.35,675.0494 335,708.6094 C369.16,740.7694 425.15,746.7594 462.17,746.7494" fill="none" id="UC_Schemas-Postgres" style="stroke:#181818;stroke-width:1;"/></g><!--link UC_CredDefs to Postgres--><g class="link" data-entity-1="ent0008" data-entity-2="ent0025" data-link-type="association" data-source-line="74" id="lnk37"><path d="M275.02,399.1194 C286.6,406.5794 297.65,416.0094 305,427.6094 C362.58,518.3894 271.78,580.6694 335,667.6094 C350.85,689.4194 418.93,716.4494 462.38,731.9894" fill="none" id="UC_CredDefs-Postgres" style="stroke:#181818;stroke-width:1;"/></g><?plantuml-src dLHjRzis4FwkNt5DFYJTQijTuxWEqW2EdMu1ajgncWue1XGqTPA9IgH1Kik2OVzzf4WnakFEmRx4kRU7TyyzkbSfPemZJAQVvyjlq_dDV0c7MPQDy3HwrObTpfUpAnDSdGpV3SOXU9zSJIV9LLEAW-oN39z5c-B1Q3X-FmpXv7wnc2y_Nt_wDTI_puOutfNGGBmzFHs-EuaYpNHX7b08KsB-z211-ITAcAGbut1BECcnHAxXs7acYslu6Nx75So8Mgy4aUdhA3g2kufmNPLVKGgulxs13IbGQmGkD9u1eLf85UDV6YKdnGVFJUnfU0FgKMaiOohAZU3ckG-UWhYPzGXIeeaoC6XYDADq5H-Uf2CwoDxKZwWQT4nFuiDqF1eDJlimALZE5QICv9AK2hI06HRCZ4TMPkYtjj5uzd46Ucrcx9it4b59YY0oqBBIwxFsM3rLCnFR7qPHnSGIqYCR5Yj9upNXQO5IzQK2yo-4j0TSzJ8fk4QUnaeJpMZyatbhYGNHc9w5_k9A8JLBy0zPv9wgcCP-MQPHfBuplY4cqR5vIUZtN8gAfrDH2DcMthDK8LEKxJIdWbQUVteRj2FB7UajuAv6ewZ0J5l69SlNsimeaMeckDNAGhAIo4UOsERWkCvKBCNNKTqk73Yf6L7A0o3AQT4M9hLAO6KRD02HnIGyDxiyQEklBU4QuEwhG_mx0ZY2YTciaHYZn3OKjAzCqCy51pSY1rzyF_rcB5DzVkx35nVX2zqg4PLkrHZh1qLr7wsFQsSFBWvCgShegi6zTkQ-RdoneaRQ91GdpdnXCPMOMg98yGUlBmcpX0MmgGdFCDkBbZno2kOBAA70DFSxjGpLLXtTW_25uOC_4R16KkXrW_5RRVqNoqcrsGYf6Szti_m59SiUpUUgb1ckmVNUytCLocjeTrUtMzi8KPWZb6BWPc4ydwpZfH0bQibegBzrvakh9UPCQVD9sVloj6rh_1YYfgU-GdQhQxQnl0Irz_iNBIBE30pZjAXIGt58imBVczS8TczY8ywzYK5u-tjyajZ_o7rQuevqhpoVsknhRwBRIJVjd_gs8HNrLNDdKS6nkvoTm-XwX4if7fhZw5m-OI6KpYKcTpSsv2rbuTsj9Ke9ojp28tSJUxsmyssFMM_7vJVPyVcbTNpDVhfuWTwEsx7J9O0yxxMx7rFgn-vigUDkP6USWOUMoBRSGL9j_xy0?></g></svg>