<?plantuml 1.2026.0?><svg xmlns="http://www.w3.org/2000/svg" xmlns:xlink="http://www.w3.org/1999/xlink" contentStyleType="text/css" data-diagram-type="DESCRIPTION" height="895px" preserveAspectRatio="none" style="width:508px;height:895px;background:#FFFFFF;" version="1.1" viewBox="0 0 508 895" width="508px" zoomAndPan="magnify"><title>Use Case - Authentication with External Services</title><defs/><g><g class="title" data-source-line="8"><text fill="#000000" font-family="sans-serif" font-size="14" font-weight="bold" lengthAdjust="spacing" textLength="325.9922" x="84.2539" y="24.5332">Use Case - Authentication with External Services</text></g><!--cluster MobileApp--><g class="cluster" data-qualified-name="MobileApp" data-source-line="25" id="ent0004"><rect fill="none" height="576.5" rx="2.5" ry="2.5" style="stroke:#181818;stroke-width:1;" width="353" x="111.5" y="186.1094"/><text fill="#000000" font-family="sans-serif" font-size="14" font-weight="bold" lengthAdjust="spacing" textLength="140" x="218" y="202.6426">QuantumZero Mobile</text></g><!--entity UC1--><g class="entity" data-qualified-name="MobileApp.UC1" data-source-line="27" id="ent0005"><ellipse cx="286.5838" cy="259.3753" fill="#E0F2FE" rx="64.5838" ry="37.266" style="stroke:#075985;stroke-width:0.5;"/><text fill="#000000" font-family="sans-serif" font-size="14" font-style="italic" lengthAdjust="spacing" textLength="67.7168" x="252.7254" y="244.8623">&#171;usecase&#187;</text><text fill="#000000" font-family="sans-serif" font-size="14" lengthAdjust="spacing" textLength="94.9443" x="239.1117" y="262.4717">Initiate external</text><text fill="#000000" font-family="sans-serif" font-size="14" lengthAdjust="spacing" textLength="87.1787" x="242.9945" y="280.0811">authentication</text></g><!--entity UC2--><g class="entity" data-qualified-name="MobileApp.UC2" data-source-line="28" id="ent0006"><ellipse cx="201.427" cy="408.8431" fill="#E0F2FE" rx="65.927" ry="33.7337" style="stroke:#075985;stroke-width:0.5;"/><text fill="#000000" font-family="sans-serif" font-size="14" font-style="italic" lengthAdjust="spacing" textLength="67.7168" x="167.5686" y="397.0468">&#171;usecase&#187;</text><text fill="#000000" font-family="sans-serif" font-size="14" lengthAdjust="spacing" textLength="108.165" x="147.3445" y="414.6562">Present verifiable</text><text fill="#000000" font-family="sans-serif" font-size="14" lengthAdjust="spacing" textLength="60.7031" x="171.0754" y="432.2655">credential</text></g><!--entity UC5--><g class="entity" data-qualified-name="MobileApp.UC5" data-source-line="29" id="ent0007"><ellipse cx="375.3297" cy="408.7072" fill="#E0F2FE" rx="72.3297" ry="32.5978" style="stroke:#075985;stroke-width:0.5;"/><text fill="#000000" font-family="sans-serif" font-size="14" font-style="italic" lengthAdjust="spacing" textLength="67.7168" x="341.4713" y="396.9884">&#171;usecase&#187;</text><text fill="#000000" font-family="sans-serif" font-size="14" lengthAdjust="spacing" textLength="123.7441" x="313.4576" y="414.5978">Receive auth token/</text><text fill="#000000" font-family="sans-serif" font-size="14" lengthAdjust="spacing" textLength="56.8066" x="346.9264" y="432.2071">assertion</text></g><!--entity UC3--><g class="entity" data-qualified-name="MobileApp.UC3" data-source-line="32" id="ent0008"><ellipse cx="213.3946" cy="557.7705" fill="#E8F5E9" rx="85.3946" ry="26.1611" style="stroke:#075985;stroke-width:0.5;"/><text fill="#000000" font-family="sans-serif" font-size="14" font-style="italic" lengthAdjust="spacing" textLength="80.9512" x="172.919" y="551.706">&#171;supporting&#187;</text><text fill="#000000" font-family="sans-serif" font-size="14" lengthAdjust="spacing" textLength="125.2891" x="150.7501" y="569.3154">Generate ZKP proof</text></g><!--entity UC4--><g class="entity" data-qualified-name="MobileApp.UC4" data-source-line="33" id="ent0009"><ellipse cx="391.5475" cy="557.53" fill="#E8F5E9" rx="57.0475" ry="37.4206" style="stroke:#075985;stroke-width:0.5;"/><text fill="#000000" font-family="sans-serif" font-size="14" font-style="italic" lengthAdjust="spacing" textLength="80.9512" x="351.0719" y="548.829">&#171;supporting&#187;</text><text fill="#000000" font-family="sans-serif" font-size="14" lengthAdjust="spacing" textLength="78.6064" x="352.2443" y="566.4383">Sign request</text><text fill="#000000" font-family="sans-serif" font-size="14" lengthAdjust="spacing" textLength="52.8965" x="365.0993" y="584.0477">with DID</text></g><!--entity UC6--><g class="entity" data-qualified-name="MobileApp.UC6" data-source-line="34" id="ent0010"><ellipse cx="387.4037" cy="712.0447" fill="#E8F5E9" rx="60.4037" ry="34.4354" style="stroke:#075985;stroke-width:0.5;"/><text fill="#000000" font-family="sans-serif" font-size="14" font-style="italic" lengthAdjust="spacing" textLength="80.9512" x="346.9281" y="703.8632">&#171;supporting&#187;</text><text fill="#000000" font-family="sans-serif" font-size="14" lengthAdjust="spacing" textLength="96.4688" x="339.1693" y="721.4725">Verify biometric</text><text fill="#000000" font-family="sans-serif" font-size="14" lengthAdjust="spacing" textLength="27.248" x="373.7797" y="739.0819">gate</text></g><!--entity User--><g class="entity" data-qualified-name="User" data-source-line="21" id="ent0002"><ellipse cx="404.2793" cy="61.1094" fill="#FFF7E6" rx="8" ry="8" style="stroke:#B45309;stroke-width:0.5;"/><path d="M404.2793,69.1094 L404.2793,96.1094 M391.2793,77.1094 L417.2793,77.1094 M404.2793,96.1094 L391.2793,111.1094 M404.2793,96.1094 L417.2793,111.1094" fill="none" style="stroke:#B45309;stroke-width:0.5;"/><text fill="#000000" font-family="sans-serif" font-size="14" lengthAdjust="spacing" textLength="29.5586" x="389.5" y="127.1426">User</text></g><!--entity ExtService--><g class="entity" data-qualified-name="ExtService" data-source-line="22" id="ent0003"><ellipse cx="286.6309" cy="52.6094" fill="#FFF7E6" rx="8" ry="8" style="stroke:#B45309;stroke-width:0.5;"/><path d="M286.6309,60.6094 L286.6309,87.6094 M273.6309,68.6094 L299.6309,68.6094 M286.6309,87.6094 L273.6309,102.6094 M286.6309,87.6094 L299.6309,102.6094" fill="none" style="stroke:#B45309;stroke-width:0.5;"/><text fill="#000000" font-family="sans-serif" font-size="14" lengthAdjust="spacing" textLength="101.9307" x="231" y="118.6426">External Service</text><text fill="#000000" font-family="sans-serif" font-size="14" lengthAdjust="spacing" textLength="111.2617" x="231" y="136.252">(IdP / Bank / Gov)</text></g><!--entity BiometricSystem--><g class="entity" data-qualified-name="BiometricSystem" data-source-line="45" id="ent0016"><ellipse cx="387.4551" cy="820.6094" fill="#FFF7E6" rx="8" ry="8" style="stroke:#B45309;stroke-width:0.5;"/><path d="M387.4551,828.6094 L387.4551,855.6094 M374.4551,836.6094 L400.4551,836.6094 M387.4551,855.6094 L374.4551,870.6094 M387.4551,855.6094 L400.4551,870.6094" fill="none" style="stroke:#B45309;stroke-width:0.5;"/><text fill="#000000" font-family="sans-serif" font-size="14" lengthAdjust="spacing" textLength="108.9102" x="333" y="886.6426">Biometric System</text></g><!--entity CryptoEngine--><g class="entity" data-qualified-name="CryptoEngine" data-source-line="46" id="ent0017"><ellipse cx="50.3584" cy="681.6094" fill="#FFF7E6" rx="8" ry="8" style="stroke:#B45309;stroke-width:0.5;"/><path d="M50.3584,689.6094 L50.3584,716.6094 M37.3584,697.6094 L63.3584,697.6094 M50.3584,716.6094 L37.3584,731.6094 M50.3584,716.6094 L63.3584,731.6094" fill="none" style="stroke:#B45309;stroke-width:0.5;"/><text fill="#000000" font-family="sans-serif" font-size="14" lengthAdjust="spacing" textLength="88.7168" x="6" y="747.6426">Crypto Engine</text></g><!--link UC1 to UC2--><g class="link" data-entity-1="ent0005" data-entity-2="ent0006" data-link-type="dependency" data-source-line="37" id="lnk11"><path d="M244.74,288.4194 C232.03,299.0094 219.36,312.1694 211.5,327.1094 C203.83,341.6894 201.3617,353.766 200.6417,369.086" fill="none" id="UC1-to-UC2" style="stroke:#181818;stroke-width:1;stroke-dasharray:7,7;"/><polygon fill="#181818" points="200.36,375.0794,204.7781,366.2771,200.5947,370.0849,196.7869,365.9015,200.36,375.0794" style="stroke:#181818;stroke-width:1;"/><text fill="#000000" font-family="sans-serif" font-size="13" lengthAdjust="spacing" textLength="55.6563" x="212.5" y="341.6045">&#171;include&#187;</text></g><!--link UC2 to UC3--><g class="link" data-entity-1="ent0006" data-entity-2="ent0008" data-link-type="dependency" data-source-line="38" id="lnk12"><path d="M204.16,442.2294 C206.36,469.1294 208.9422,500.7592 210.9522,525.3992" fill="none" id="UC2-to-UC3" style="stroke:#181818;stroke-width:1;stroke-dasharray:7,7;"/><polygon fill="#181818" points="211.44,531.3794,214.695,522.084,211.0335,526.3959,206.7215,522.7344,211.44,531.3794" style="stroke:#181818;stroke-width:1;"/><text fill="#000000" font-family="sans-serif" font-size="13" lengthAdjust="spacing" textLength="55.6563" x="208.5" y="486.6045">&#171;include&#187;</text></g><!--link UC2 to UC4--><g class="link" data-entity-1="ent0006" data-entity-2="ent0009" data-link-type="dependency" data-source-line="39" id="lnk13"><path d="M237.24,437.2594 C270.99,463.3694 316.6136,498.679 350.5336,524.909" fill="none" id="UC2-to-UC4" style="stroke:#181818;stroke-width:1;stroke-dasharray:7,7;"/><polygon fill="#181818" points="355.28,528.5794,350.6073,519.9096,351.3247,525.5207,345.7135,526.2381,355.28,528.5794" style="stroke:#181818;stroke-width:1;"/><text fill="#000000" font-family="sans-serif" font-size="13" lengthAdjust="spacing" textLength="55.6563" x="302.5" y="486.6045">&#171;include&#187;</text></g><!--link UC4 to UC6--><g class="link" data-entity-1="ent0009" data-entity-2="ent0010" data-link-type="dependency" data-source-line="40" id="lnk14"><path d="M390.54,595.1394 C389.89,620.1594 389.1775,647.1114 388.5375,671.4914" fill="none" id="UC4-to-UC6" style="stroke:#181818;stroke-width:1;stroke-dasharray:7,7;"/><polygon fill="#181818" points="388.38,677.4894,392.6148,668.5974,388.5112,672.4911,384.6176,668.3875,388.38,677.4894" style="stroke:#181818;stroke-width:1;"/><text fill="#000000" font-family="sans-serif" font-size="13" lengthAdjust="spacing" textLength="55.6563" x="390.5" y="639.6045">&#171;include&#187;</text></g><!--link UC1 to UC5--><g class="link" data-entity-1="ent0005" data-entity-2="ent0007" data-link-type="dependency" data-source-line="41" id="lnk15"><path d="M298.56,296.7894 C304.44,312.2294 312.25,330.1094 321.5,345.1094 C328.73,356.8294 334.1516,364.058 343.0716,374.128" fill="none" id="UC1-to-UC5" style="stroke:#181818;stroke-width:1;stroke-dasharray:7,7;"/><polygon fill="#181818" points="347.05,378.6194,344.0766,369.2301,343.7346,374.8766,338.0881,374.5346,347.05,378.6194" style="stroke:#181818;stroke-width:1;"/><text fill="#000000" font-family="sans-serif" font-size="13" lengthAdjust="spacing" textLength="55.6563" x="322.5" y="341.6045">&#171;include&#187;</text></g><!--link User to UC1--><g class="link" data-entity-1="ent0002" data-entity-2="ent0005" data-link-type="association" data-source-line="49" id="lnk18"><path d="M389.32,113.9694 C369.4,141.9894 334.21,191.4894 310.63,224.6694" fill="none" id="User-UC1" style="stroke:#181818;stroke-width:1;"/></g><!--link User to UC6--><g class="link" data-entity-1="ent0002" data-entity-2="ent0010" data-link-type="association" data-source-line="50" id="lnk19"><path d="M419.66,106.5294 C446.94,133.1894 501.5,194.5194 501.5,258.6094 C501.5,258.6094 501.5,258.6094 501.5,558.6094 C501.5,611.1694 457.52,657.2694 424.2,684.6594" fill="none" id="User-UC6" style="stroke:#181818;stroke-width:1;"/></g><!--link User to UC5--><g class="link" data-entity-1="ent0002" data-entity-2="ent0007" data-link-type="association" data-source-line="51" id="lnk20"><path d="M401.47,130.7094 C397.48,180.1694 390.06,269.1394 382.5,345.1094 C381.49,355.2094 380.3,366.2294 379.18,376.1494" fill="none" id="User-UC5" style="stroke:#181818;stroke-width:1;"/></g><!--link ExtService to UC1--><g class="link" data-entity-1="ent0003" data-entity-2="ent0005" data-link-type="association" data-source-line="52" id="lnk21"><path d="M286.5,139.2894 C286.5,165.4694 286.5,197.6594 286.5,221.9994" fill="none" id="ExtService-UC1" style="stroke:#181818;stroke-width:1;"/></g><!--link UC6 to BiometricSystem--><g class="link" data-entity-1="ent0010" data-entity-2="ent0016" data-link-type="association" data-source-line="55" id="lnk22"><path d="M387.5,746.6194 C387.5,766.4294 387.5,791.5694 387.5,812.1094" fill="none" id="UC6-BiometricSystem" style="stroke:#181818;stroke-width:1;"/></g><!--link UC4 to CryptoEngine--><g class="link" data-entity-1="ent0009" data-entity-2="ent0017" data-link-type="association" data-source-line="56" id="lnk23"><path d="M346.99,581.0794 C337.03,585.8794 326.47,590.7994 316.5,595.1094 C227.03,633.8094 198.84,629.7994 111.5,673.1094 C106.13,675.7694 100.64,678.7694 95.24,681.8894" fill="none" id="UC4-CryptoEngine" style="stroke:#181818;stroke-width:1;"/></g><?plantuml-src ZLJRJXj137tVhp3XWI8HDa0k105IRaMeqAG9z055gYQptZ1YCxETcT2YglzUp-nks8JGzYMPsCV7zh6TdGXZ8H4wlRlX-5jlU3CSmsuSnori1Zjhlkvmt1-GSrPldDJQA-VzPD3hJ0P5ADRYunZVU8lWMglHFcsit9FxqMWulhl-VBMAFuqRsDu6A2YEcit6IJq8hB099J08FKOVLUWixIDAApYpGadu8UmZ37vQr98bC47zB3YQ8DY3BqicxNBnW5h1_UqDf2n1Qn6aidW6Z5kbJOXvv4MkHfWtVW3cnLXSX5mjKYKfuKNUT5XqjmSHiymG3PAFnvpFmjrwrEAr-C0dCPwqpUlXRjHkjMhDG-WaOYuDH8BDDLiOi0hwc8Xdr6n6RHwvGiF-npvGZmiy30Bp96JA29iLt6NyQQxLKaOzbIXTdkSRgD8HwZ8iaxQ4Mnha9EecwTgijy1BnEk3fscfrFKqKzQg1RMfaRifkN6Cj5Wm_G8TBpnyI32sO4I4-u6lryrOvy_Ava2dyiDrD88Gkam-qTULUjwl03DkyZd4vPZucK7NzU9oLU5MpGG9sqdJmDN2v9n-LSghaI4yMVOaBFmA05vBBhRFa3KN0IhNKbZ1Q9-A5PfAjhQQdlA-TmJdvtdGvUNgSaf48us6ee2MGCJ2xS5KSesHOs99pdByBvOnSgGz0bS3ZU09PKW56TAqL4lZ7HRVxMIPfehGShwzuIkKjARKyCEd4QHQgJXdFI5MimhsnDbvbu8djFUWyViIZPrAVxJzwtvEKFyFWgzEdHUO2RL0gmMVoZdLaXCqtoVmhQt-FiQO-DcOHv6wvjnu3WyllS1dH28aJvOHYUDznxdlv2---XPVFVSrj_YAV8qDts-_lyXLjhd5bMWnVrm_aqgta21VTw_1ofZP2cnFlwHqZmCvfxzP3ymicS6bz8cgAu4wnYWkCeq2Tv5GhRggI-zcwTq8NW-mGBxjOuELT27ePiLEDZAlrVS7?></g></svg>